<svg xmlns="http://www.w3.org/2000/svg" xmlns:xlink="http://www.w3.org/1999/xlink" viewBox="0,0,256,256" width="144px" height="144px"><defs><linearGradient x1="24.116" y1="30.267" x2="23.919" y2="10.709" gradientUnits="userSpaceOnUse" id="color-1"><stop offset="0" stop-color="#000000"></stop><stop offset="0.557" stop-color="#000000"></stop><stop offset="1" stop-color="#000000"></stop></linearGradient></defs><g fill="url(#color-1)" fill-rule="nonzero" stroke="none" stroke-width="1" stroke-linecap="butt" stroke-linejoin="miter" stroke-miterlimit="10" stroke-dasharray="" stroke-dashoffset="0" font-family="none" font-weight="none" font-size="none" text-anchor="none" style="mix-blend-mode: normal"><g transform="scale(5.33333,5.33333)"><path d="M21,26v13c-2.988,-4.662 -5.977,-6.986 -10.532,-6.271c-3.351,0.957 -2.218,3.644 7.372,7.564c-12.829,-1.772 -20.398,-8.474 -16.563,-13.293c1.287,3.766 12.755,3.952 14.84,1.755c1.745,-2.303 -3.878,-6.606 -12.117,-8.755c4.266,-2.396 8.67,-4.457 16.665,-4.553c-8.138,1.867 -12.399,6.606 0.335,10.553zM47.569,23.777c-2.872,7.181 -18.527,3.686 -18.862,1.005c-0.192,-2.25 6.606,-6.176 11.92,-7.995c-3.733,-3.111 -9.48,-4.655 -15.627,-4.787c10.745,3.59 8.734,7.277 -1,13v10c2.745,-6.963 11.936,-6.915 12.463,-4.569c0.424,1.891 -4.564,4.25 -9.814,6.08c10.532,-1.963 23.505,-5.027 20.92,-12.734zM24.351,20.808c0,0 1.372,-3.862 -1.101,-8.378c-2.316,-4.229 0.814,-9 0.814,-9c0,0 -4.548,4.691 -2.442,9.718c2.106,5.027 0.287,8.809 0.287,8.809z"></path></g></g></svg>